<svg xmlns="http://www.w3.org/2000/svg" viewBox="0 0 375 99.79"><defs><style>.cls-1,.cls-4{fill:#4285f4;}.cls-2,.cls-5{fill:#669df6;}.cls-3,.cls-6{fill:#aecbfa;}.cls-4,.cls-5,.cls-6{fill-rule:evenodd;}.cls-7{font-size:23px;font-family:GoogleSans-Bold, Google Sans;font-weight:700;}.cls-8{letter-spacing:-0.01em;}.cls-9{letter-spacing:0.01em;}.cls-10{letter-spacing:-0.01em;}.cls-11{letter-spacing:0em;}.cls-12{letter-spacing:-0.03em;}.cls-13{letter-spacing:-0.02em;}.cls-14{letter-spacing:0.02em;}.cls-15{letter-spacing:-0.04em;}.cls-16{letter-spacing:-0.06em;}.cls-17{letter-spacing:-0.01em;}.cls-18{letter-spacing:0em;}.cls-19{letter-spacing:0em;}.cls-20{fill:none;stroke:#fff;stroke-miterlimit:10;}</style></defs><g id="Layer_2" data-name="Layer 2"><g id="Layer_1-2" data-name="Layer 1"><polygon class="cls-1" points="202 87.11 202 53.74 173.1 37.06 173.1 52.26 188.91 61.3 188.84 79.51 202 87.11"/><polygon class="cls-2" points="183.77 92.37 183.77 64.27 159.43 50.22 159.43 63.3 172.49 70.78 172.44 85.83 183.77 92.37"/><polygon class="cls-3" points="167.36 96.59 167.36 73.74 147.58 62.32 147.58 73.29 157.9 79.2 157.86 91.1 167.36 96.59"/><g id="Shape"><polygon class="cls-4" points="263.16 70.53 278.06 79.14 278.06 82.38 261.89 73.05 263.16 70.53"/><polygon class="cls-5" points="247.78 72.46 230.72 82.31 229.68 79.69 246.3 70.07 247.78 72.46"/><rect id="Rectangle-path" class="cls-3" x="252.92" y="38.55" width="2.82" height="18.92"/><path class="cls-6" d="M225.75,50.69V83.42l28.64,16.37L283,83.42V50.69L254.39,34.32Zm51.16,29.1L254.39,92.53,231.87,79.79V54.32l22.52-12.73,22.49,12.73V79.79Z"/><polygon class="cls-6" points="254.32 65.42 267.35 57.92 254.32 50.4 241.33 57.92 254.32 65.42"/><polygon class="cls-5" points="252.82 68.04 240.18 60.54 240.18 75.57 252.82 83.06 252.82 68.04"/><polygon class="cls-4" points="255.96 68.04 255.96 83.06 268.6 75.57 268.6 60.54 255.96 68.04"/></g><g id="Container-Builder"><g id="Group"><g id="Shape-2" data-name="Shape"><polygon class="cls-1" points="99.81 81.89 111.15 75.35 111.15 62.27 107.35 60.04 96 79.7 99.81 81.89"/><polygon class="cls-2" points="88.46 62.27 88.46 75.35 92.27 77.54 103.64 57.91 99.81 55.69 88.46 62.27"/></g></g></g><polygon class="cls-3" points="97.58 85.79 83.98 77.93 83.98 62.27 71.9 55.27 71.9 84.92 97.58 99.75 97.58 85.79"/><polygon class="cls-3" points="86.21 58.4 99.81 50.53 113.41 58.4 125.52 51.41 99.81 36.55 74.09 51.41 86.21 58.4"/><polygon class="cls-3" points="115.63 77.93 102.03 85.79 102.03 99.75 127.75 84.92 127.75 55.27 115.63 62.27 115.63 77.93"/><text class="cls-7" transform="translate(30.33 19.73)">S<tspan class="cls-8" x="13.55" y="0">o</tspan><tspan class="cls-9" x="27.35" y="0">ft</tspan><tspan class="cls-10" x="45.01" y="0">w</tspan><tspan class="cls-11" x="63.94" y="0">a</tspan><tspan class="cls-12" x="76.84" y="0">r</tspan><tspan x="85.97" y="0">e </tspan><tspan class="cls-8" x="104.86" y="0">D</tspan><tspan class="cls-11" x="121.48" y="0">eli</tspan><tspan class="cls-13" x="147.29" y="0">v</tspan><tspan x="160.24" y="0">e</tspan><tspan class="cls-14" x="173.74" y="0">r</tspan><tspan x="184.07" y="0">y</tspan><tspan class="cls-15" x="197.36" y="0"> </tspan><tspan class="cls-16" x="201.82" y="0">W</tspan><tspan class="cls-17" x="223.1" y="0">o</tspan><tspan class="cls-18" x="237.01" y="0">r</tspan><tspan class="cls-17" x="246.95" y="0">k</tspan><tspan x="259.57" y="0">sh</tspan><tspan class="cls-19" x="285.03" y="0">o</tspan><tspan x="299.06" y="0">p</tspan></text><line class="cls-20" y1="25.15" x2="375" y2="25.15"/></g></g></svg>